<?xml version="1.0" standalone="no"?>
<!DOCTYPE svg PUBLIC "-//W3C//DTD SVG 20010904//EN"
 "http://www.w3.org/TR/2001/REC-SVG-20010904/DTD/svg10.dtd">
<svg version="1.0" xmlns="http://www.w3.org/2000/svg"
 width="400.000000pt" height="400.000000pt" viewBox="0 0 400.000000 400.000000"
 preserveAspectRatio="xMidYMid meet">
<metadata>
Created by potrace 1.16, written by Peter Selinger 2001-2019
</metadata>
<g transform="translate(0.000000,400.000000) scale(0.100000,-0.100000)"
fill="#000000" stroke="none">
<path d="M0 3045 l0 -955 27 11 c33 12 122 76 146 103 9 12 23 32 30 46 32 61
98 158 129 191 7 8 31 37 53 64 22 28 65 77 95 111 30 33 64 71 76 85 37 43
109 106 140 122 16 8 59 23 94 32 72 19 115 16 225 -13 58 -15 71 -22 73 -40
3 -18 -4 -26 -32 -37 -45 -19 -76 -19 -126 1 -38 16 -42 15 -61 -2 -11 -10
-41 -21 -67 -24 -42 -5 -47 -8 -56 -38 -5 -19 -22 -43 -37 -54 -24 -18 -26
-24 -17 -44 6 -13 14 -24 17 -24 4 0 8 -13 9 -30 1 -17 -1 -30 -6 -30 -4 0
-16 -16 -26 -35 -21 -38 -39 -44 -55 -17 -10 16 -12 15 -29 -7 -21 -25 -36
-80 -52 -181 -15 -99 -14 -113 10 -105 24 8 27 -20 5 -49 -8 -11 -15 -27 -15
-35 0 -11 6 -9 20 9 11 14 20 28 20 33 0 4 11 25 25 47 14 22 25 50 25 63 0
13 11 36 25 51 14 15 25 31 25 35 0 4 12 14 26 21 21 12 25 19 20 43 -8 38 41
129 64 122 11 -4 33 11 63 41 39 39 49 44 62 34 21 -18 19 -72 -5 -98 -19 -20
-35 -22 -70 -8 -11 5 -20 -7 -33 -44 -10 -28 -15 -55 -12 -61 4 -5 1 -17 -6
-25 -22 -27 1 -28 29 -1 16 15 33 27 40 27 7 0 12 6 12 13 0 7 15 24 33 37 17
13 41 35 51 48 16 21 25 23 59 18 59 -10 77 -23 77 -55 0 -31 -22 -57 -40 -46
-14 9 -50 -4 -50 -17 0 -6 -10 -31 -22 -55 -20 -40 -25 -44 -50 -39 -18 4 -28
1 -28 -7 0 -6 -11 -36 -25 -66 -14 -30 -23 -56 -21 -58 2 -3 33 25 68 62 59
62 103 95 127 95 11 0 10 -11 -15 -138 -18 -92 -64 -182 -92 -182 -6 0 -16 -8
-21 -17 -9 -15 -10 -14 -11 10 0 33 -16 36 -24 3 -3 -14 -18 -39 -33 -57 -33
-39 -176 -133 -235 -155 -85 -30 -104 -34 -201 -39 -81 -4 -101 -2 -114 11
-12 11 -26 14 -56 9 -31 -6 -38 -4 -33 6 3 8 9 21 12 30 4 12 20 16 62 16 81
0 123 21 171 87 23 30 41 58 41 62 0 4 -22 -16 -49 -43 -75 -76 -133 -98 -216
-80 -16 3 -24 4 -17 1 27 -12 9 -19 -46 -18 -31 1 -60 3 -64 4 -5 1 -14 3 -20
4 -7 0 -31 46 -53 101 l-40 100 -3 -618 c-2 -522 0 -621 12 -640 8 -12 33 -67
55 -122 22 -55 52 -125 67 -155 15 -30 42 -98 61 -150 18 -52 61 -150 93 -217
l60 -123 50 0 c49 0 59 6 41 25 -17 18 -209 399 -297 590 -48 105 -93 197 -99
205 -7 8 -16 22 -20 30 -7 12 -6 13 6 5 20 -15 73 -20 65 -6 -14 21 3 11 34
-21 34 -37 287 -532 315 -618 20 -62 32 -83 89 -157 l41 -53 1130 0 1130 0
106 103 c58 56 137 129 176 162 40 34 93 94 124 139 72 106 155 186 226 221
32 16 88 49 125 73 106 68 233 104 254 70 5 -7 3 -8 -6 -3 -8 5 -11 4 -6 -3 4
-6 13 -9 21 -5 9 3 15 -1 15 -9 0 -9 13 -13 48 -11 l47 2 -53 -10 c-94 -16
-127 -41 -177 -134 -53 -98 -148 -226 -213 -288 -107 -101 -148 -143 -217
-222 l-69 -80 379 -3 c208 -1 380 -1 382 1 2 2 2 313 1 692 l-3 688 -39 -66
-38 -66 -27 17 c-35 23 -65 47 -127 105 -28 26 -57 47 -65 47 -8 0 -20 5 -26
11 -6 6 -42 13 -79 15 -38 3 -79 7 -92 10 -12 2 -31 0 -42 -6 -12 -7 -21 -7
-25 0 -3 5 -19 10 -34 10 -15 0 -43 12 -62 26 -46 34 -73 49 -65 35 4 -6 3
-11 -3 -11 -5 0 -28 23 -51 52 -22 28 -50 58 -61 66 -10 7 -29 32 -40 54 -13
26 -24 37 -28 29 -9 -13 -79 67 -99 112 -6 15 -15 73 -19 129 -7 117 -1 128
74 128 41 0 45 -3 73 -47 16 -25 37 -71 45 -100 13 -45 19 -53 33 -48 9 4 47
12 84 19 37 6 70 15 75 20 4 5 3 6 -4 2 -9 -5 -13 0 -13 13 0 11 -5 23 -11 27
-6 3 -9 21 -7 39 2 19 1 32 -3 29 -9 -5 -26 42 -34 93 -6 39 -9 42 -27 32 -11
-6 -36 -8 -58 -4 -35 6 -40 10 -46 42 -4 19 -2 39 2 43 5 5 41 12 80 16 l71 7
6 -32 c4 -18 11 -30 16 -27 10 6 4 52 -11 83 -6 12 -8 40 -4 62 3 22 1 63 -6
91 -11 49 -13 51 -40 48 -20 -3 -34 2 -50 19 l-22 24 -17 -22 c-10 -14 -30
-23 -55 -26 -35 -3 -40 -1 -52 27 -20 44 -12 62 38 87 53 26 136 30 201 9 24
-8 56 -17 70 -20 15 -3 36 -20 48 -38 11 -18 21 -28 21 -21 0 26 30 -1 59 -51
19 -34 28 -64 26 -82 -3 -33 6 -54 47 -104 15 -19 28 -38 28 -42 0 -8 69 -119
79 -128 3 -3 24 -39 45 -80 56 -108 100 -164 155 -199 26 -17 52 -31 58 -31 6
0 16 -7 23 -15 7 -8 16 -15 21 -15 5 0 9 480 9 1110 l0 1110 -2000 0 -2000 0
0 -955z m2056 101 c72 -6 180 -37 270 -77 27 -12 69 -31 94 -42 76 -34 138
-79 157 -114 18 -35 14 -52 -8 -31 -75 70 -127 95 -191 90 -10 -1 -18 2 -18 7
0 4 -34 7 -77 7 -56 -1 -78 -5 -81 -15 -3 -10 0 -12 12 -8 10 4 16 1 16 -8 0
-9 20 -16 68 -21 37 -4 71 -7 76 -5 6 1 19 -2 30 -7 134 -60 159 -80 196 -155
13 -26 27 -47 31 -47 3 0 9 -8 13 -17 3 -10 17 -36 31 -58 27 -43 31 -84 14
-154 -5 -24 -10 -60 -10 -80 -1 -47 -30 -215 -38 -221 -19 -14 -42 -142 -40
-220 2 -91 -11 -157 -40 -199 -10 -14 -27 -40 -37 -56 -49 -80 -169 -156 -404
-257 -19 -8 -60 -26 -89 -39 -48 -21 -69 -24 -165 -23 -164 2 -285 25 -347 67
-26 18 -79 106 -79 133 0 8 -4 14 -10 14 -5 0 -10 6 -10 13 0 7 -9 18 -19 24
-10 7 -31 36 -46 67 -26 53 -26 56 -19 188 4 73 10 144 14 158 l7 25 12 -22
c6 -13 16 -23 21 -23 15 0 12 53 -4 75 -7 11 -17 43 -21 70 -8 46 -9 48 -15
20 -10 -46 -22 153 -16 258 3 55 11 96 21 109 l15 22 0 -27 c0 -16 7 -35 15
-43 13 -14 15 -10 15 31 0 25 5 56 12 68 6 12 14 36 18 52 l6 30 106 -4 c100
-3 107 -2 117 18 15 27 25 26 51 -1 l20 -22 0 25 c0 23 -23 52 -60 74 -13 8
-13 6 -1 -8 13 -16 12 -17 -15 -6 -16 6 -65 12 -109 14 l-80 2 2 56 c1 64 27
118 57 123 11 1 53 -1 95 -6 45 -5 80 -5 85 0 6 6 15 5 24 -3 13 -10 14 -8 7
13 -4 14 -8 25 -9 25 0 1 -14 6 -30 13 -15 7 -55 15 -87 19 -32 3 -59 9 -59
14 0 4 18 27 39 51 l39 43 154 5 c84 3 164 5 178 3 14 -1 57 -4 96 -7z m-152
-2162 c21 -8 22 -87 1 -104 -8 -7 -15 -23 -15 -35 0 -14 -7 -25 -20 -28 -14
-3 -20 -14 -20 -32 0 -22 4 -26 22 -23 14 2 25 13 29 28 l7 25 1 -27 c1 -15
-4 -30 -9 -33 -7 -4 -9 -24 -6 -48 7 -53 19 -183 20 -222 1 -27 -2 -30 -31
-33 l-33 -3 0 50 c0 27 5 53 10 56 12 7 10 65 -2 65 -13 0 -9 68 5 91 10 17 9
22 -5 33 -22 16 -23 44 -3 82 13 26 13 30 -1 40 -22 17 -37 80 -25 102 8 13
10 7 11 -30 0 -46 1 -48 29 -48 25 0 30 4 36 37 5 29 3 40 -11 50 -19 14 -15
17 10 7z"/>
<path d="M2410 2750 c18 -11 13 -12 -63 -10 -89 2 -165 -10 -199 -34 -18 -11
-31 -25 -30 -30 2 -12 52 -15 52 -3 0 8 61 37 80 37 5 0 10 -11 10 -24 0 -21
6 -24 53 -30 28 -3 70 -6 93 -6 22 0 49 -7 60 -15 37 -28 88 -11 90 31 0 17
-9 25 -38 33 -21 7 -38 15 -38 20 0 4 -16 15 -35 24 -39 19 -59 22 -35 7z"/>
<path d="M1654 2315 c-49 -22 -60 -41 -39 -65 10 -11 30 -20 44 -19 25 0 25 1
5 9 -12 5 -25 14 -29 20 -6 9 12 11 71 6 44 -4 113 -9 154 -11 41 -2 95 -11
120 -19 l45 -15 -40 0 c-28 -1 -36 -4 -28 -12 15 -15 80 -14 99 2 26 21 41 62
33 89 -6 22 -7 22 -8 4 -1 -22 -40 -64 -59 -64 -6 0 -31 14 -55 31 -38 26 -54
31 -118 34 -41 1 -87 8 -102 14 -35 14 -54 13 -93 -4z"/>
<path d="M1521 2026 c-41 -6 -76 -16 -78 -23 -5 -14 73 -68 110 -75 23 -4 27
-2 27 18 0 20 6 23 64 29 81 9 288 -11 327 -30 15 -8 34 -15 42 -15 23 0 42
-29 29 -42 -9 -9 -16 -7 -29 5 -13 11 -23 13 -33 7 -8 -5 -36 -7 -61 -4 -30 4
-49 2 -53 -5 -5 -8 12 -11 56 -11 35 0 80 -4 101 -9 32 -8 37 -7 37 9 0 22 37
33 48 14 6 -11 15 -11 47 -3 51 14 62 24 45 44 -8 10 -30 15 -66 15 -29 0 -65
5 -79 10 -58 22 -182 42 -228 36 -26 -3 -45 -1 -42 4 6 9 -53 25 -62 16 -3 -3
5 -10 18 -15 24 -10 24 -10 2 -10 -13 -1 -23 3 -23 9 0 30 -89 42 -199 26z"/>
<path d="M3604 588 c-16 -13 -34 -28 -41 -34 -7 -7 -50 -31 -95 -53 -46 -23
-92 -49 -103 -59 -23 -19 -91 -108 -149 -195 -21 -31 -81 -100 -134 -152 l-94
-95 59 0 c43 0 62 4 73 18 8 9 47 55 85 102 83 99 231 252 296 303 26 21 66
69 92 112 25 41 44 75 43 75 -2 0 -16 -10 -32 -22z"/>
<path d="M0 285 l0 -285 116 0 c89 0 115 3 111 13 -49 107 -182 442 -203 510
-8 26 -17 47 -19 47 -3 0 -5 -128 -5 -285z"/>
</g>
</svg>
